<?xml version="1.0" standalone="no"?><!DOCTYPE svg PUBLIC "-//W3C//DTD SVG 1.1//EN" "http://www.w3.org/Graphics/SVG/1.1/DTD/svg11.dtd"><svg t="1712232963105" class="icon" viewBox="0 0 1024 1024" version="1.1" xmlns="http://www.w3.org/2000/svg" p-id="3354" xmlns:xlink="http://www.w3.org/1999/xlink" width="200" height="200"><path d="M369.1 464.5L76.4 225.3c-5.2-4.3-13.1-0.6-13.1 6.2v538.7c0 1.1 0 2.1 0.1 3.2 0.4 7 8.9 10.2 13.7 5.1l292.6-302.2c3.3-3.4 3-8.8-0.6-11.8zM109.1 178l397.7 318.7c2.9 2.3 7.1 2.3 10 0L914.5 178c5.9-4.7 2.6-14.2-5-14.2H114.1c-7.5 0-10.9 9.5-5 14.2z m498.7 331.7c-2.9-3.1-7.8-3.3-11-0.5L517 577.5c-3 2.5-7.3 2.6-10.3 0.1l-82.1-68.1c-3.2-2.7-7.9-2.4-10.8 0.6L107.9 823.2c-4.9 5.1-1.4 13.6 5.7 13.6h788.5c7 0 10.6-8.4 5.8-13.5L607.8 509.7z m352.6-276.9c0-6.7-7.8-10.5-13-6.2l-291.7 237c-3.6 3-4 8.4-0.7 11.8l291.6 303.2c4.9 5 13.4 1.9 13.8-5.1 0.1-1 0.1-2.1 0.1-3.1l-0.1-537.6z" fill="#0C0101" p-id="3355"></path></svg>