<?xml version="1.0" standalone="no"?><!DOCTYPE svg PUBLIC "-//W3C//DTD SVG 1.1//EN" "http://www.w3.org/Graphics/SVG/1.1/DTD/svg11.dtd"><svg t="1712231935542" class="icon" viewBox="0 0 1024 1024" version="1.1" xmlns="http://www.w3.org/2000/svg" p-id="7497" xmlns:xlink="http://www.w3.org/1999/xlink" width="200" height="200"><path d="M663.771429 591.506286l183.588571 214.235428A73.142857 73.142857 0 0 1 791.82019 926.47619H548.571429v-219.428571h-73.142858v219.428571H232.17981a73.142857 73.142857 0 0 1-55.53981-120.734476l183.612952-214.211047A291.206095 291.206095 0 0 0 512 633.904762c55.588571 0 107.52-15.481905 151.771429-42.398476zM512 97.52381c134.656 0 243.809524 109.153524 243.809524 243.809523s-109.153524 243.809524-243.809524 243.809524-243.809524-109.153524-243.809524-243.809524S377.344 97.52381 512 97.52381z" p-id="7498"></path></svg>