<svg version="1.1" id="Layer_1" xmlns="http://www.w3.org/2000/svg" xmlns:xlink="http://www.w3.org/1999/xlink" x="0px" y="0px"
	 width="100%" viewBox="0 0 600 600" enable-background="new 0 0 600 600" xml:space="preserve">
<path fill="#FFFFFF" opacity="1.000000" stroke="none" 
	d="
M286.000000,601.000000 
	C190.666672,601.000000 95.833336,601.000000 1.000000,601.000000 
	C1.000000,401.000000 1.000000,201.000000 1.000000,1.000000 
	C201.000000,1.000000 401.000000,1.000000 601.000000,1.000000 
	C601.000000,201.000000 601.000000,401.000000 601.000000,601.000000 
	C496.166656,601.000000 391.333344,601.000000 286.000000,601.000000 
M326.410156,202.199127 
	C318.252045,218.461380 310.093903,234.723618 301.467285,251.035034 
	C301.467285,251.035034 300.996765,251.013351 300.771332,250.347885 
	C292.645233,234.205475 284.519165,218.063049 276.163849,201.218323 
	C268.364075,185.521301 260.564301,169.824280 252.334518,153.261841 
	C244.257416,169.666565 236.574478,185.270767 228.364532,201.327072 
	C225.997162,206.073593 223.602249,210.806610 221.267853,215.569290 
	C215.362000,227.618576 209.483337,239.681183 203.115585,252.208740 
	C195.012573,268.295074 186.909561,284.381409 178.515396,301.045746 
	C194.788681,301.045746 210.097244,301.105225 225.403275,300.934479 
	C226.648224,300.920593 228.429626,299.613037 229.027298,298.433258 
	C236.836792,283.017120 244.477646,267.515564 252.500946,252.078232 
	C252.500946,252.078232 252.842987,252.100464 252.977646,252.805450 
	C260.912506,268.553162 268.847351,284.300903 277.368835,300.700836 
	C291.984741,300.813263 306.602448,300.829865 321.215179,301.109070 
	C324.644409,301.174561 326.515442,300.189636 328.088318,296.974030 
	C335.451263,281.921570 343.126343,267.021851 350.883575,252.775146 
	C358.888458,268.618286 366.893341,284.461395 375.562561,300.829010 
	C391.514191,300.829010 407.465851,300.829010 424.165833,300.829010 
	C415.574188,283.981842 407.380188,267.914337 399.043610,251.143600 
	C391.018005,235.100739 382.992371,219.057892 374.764282,202.344223 
	C366.750305,186.347214 358.736359,170.350204 350.209106,153.328583 
	C342.149078,169.796371 334.561737,185.293365 326.995056,200.800430 
	C326.864594,201.067764 326.983643,201.456848 326.410156,202.199127 
M236.994965,366.448364 
	C236.994965,370.085907 236.994965,373.723419 236.994965,377.586853 
	C230.513733,379.262177 224.375809,380.848724 218.391693,382.395538 
	C219.848801,385.372070 221.288788,388.313599 222.810287,391.421661 
	C227.325623,389.422211 231.964584,387.368042 236.947006,385.161774 
	C236.947006,394.042603 236.947006,402.474030 236.947006,410.967590 
	C240.054260,410.967590 242.940536,410.967590 245.900421,410.967590 
	C245.900421,403.254669 245.900604,395.772369 245.900360,388.290100 
	C245.900085,379.771179 247.929825,378.407166 256.227448,381.353455 
	C256.815002,381.562042 257.397461,381.784943 258.132660,382.056763 
	C259.595856,379.296570 260.962097,376.719299 262.214508,374.356781 
	C264.160583,379.467102 266.027435,384.369415 268.349060,390.465851 
	C261.536133,395.158081 254.465134,400.028076 247.460495,404.852356 
	C253.365494,410.982361 253.500000,411.211029 260.179504,407.281586 
	C264.812836,404.555969 269.012146,401.092621 272.859741,398.348083 
	C278.573517,402.466034 284.377441,406.648956 289.924957,410.647064 
	C292.982056,407.776764 295.182190,405.711090 296.812958,404.179962 
	C290.315735,399.671692 283.889374,395.212555 278.960022,391.792175 
	C282.251801,379.818207 285.056763,369.615051 287.947754,359.098938 
	C290.222046,359.098938 293.005768,359.098938 295.721985,359.098938 
	C295.721985,356.632477 295.721985,354.388214 295.721985,351.986908 
	C286.794312,351.986908 278.151642,351.986908 269.286804,351.986908 
	C270.568756,347.189148 271.792938,342.607605 273.095123,337.734161 
	C269.739594,337.135986 266.715393,336.596924 263.923553,336.099243 
	C261.925293,344.475311 259.993958,352.570923 258.062592,360.666534 
	C257.730042,360.585754 257.397491,360.504974 257.064941,360.424164 
	C256.984894,359.011169 256.904846,357.598175 256.808990,355.906311 
	C253.043076,355.906311 249.614639,355.906311 245.825348,355.906311 
	C245.825348,349.197449 245.825348,342.790955 245.825348,336.451416 
	C242.702316,336.451416 239.963135,336.451416 236.992264,336.451416 
	C236.992264,340.286743 236.989700,343.926483 236.992783,347.566223 
	C236.999664,355.731995 237.000809,355.731995 233.664017,356.300690 
	C234.189529,352.876984 234.700668,349.546997 235.214905,346.196777 
	C231.981934,345.617798 229.245850,345.127777 226.629639,344.659241 
	C223.878693,355.762634 221.233826,366.437897 218.619843,376.988556 
	C221.305893,377.315155 224.046875,377.648468 226.944717,378.000824 
	C228.489365,373.066833 230.010498,368.207947 231.956345,361.992401 
	C234.010773,363.399414 235.502090,364.420807 236.994965,366.448364 
M360.761108,384.477875 
	C357.227417,383.029785 358.319153,386.133575 358.077454,387.444183 
	C357.251556,391.922333 356.687286,396.448730 356.018097,400.991394 
	C349.311981,400.991394 343.310242,400.765991 337.335938,401.073639 
	C333.590302,401.266602 332.893707,399.737427 332.946655,396.419800 
	C333.114197,385.923767 333.008545,375.423431 333.008514,364.924744 
	C333.008514,360.352814 333.008514,355.780884 333.008514,351.389587 
	C329.810425,351.389587 327.044220,351.389587 324.133667,351.389587 
	C324.133667,367.377045 323.940216,383.176697 324.223724,398.967804 
	C324.346436,405.802155 328.236481,409.149261 335.092163,409.267303 
	C342.589020,409.396393 350.091614,409.199677 357.588074,409.339661 
	C361.322754,409.409393 363.615875,408.074677 364.243622,404.246185 
	C365.206512,398.373596 366.230591,392.511047 367.238373,386.587402 
	C365.036346,385.958801 363.188934,385.431458 360.761108,384.477875 
M306.997589,374.307709 
	C304.764221,379.872375 302.530853,385.437012 300.231415,391.166290 
	C303.254974,392.491364 305.897247,393.649323 308.922424,394.975098 
	C312.770874,384.974579 316.519623,375.233215 320.326752,365.340149 
	C316.875214,364.262421 314.141937,363.408966 311.328094,362.530365 
	C309.819794,366.467712 308.466675,369.999939 306.997589,374.307709 
M355.908264,364.986908 
	C362.142700,372.641785 368.377136,380.296661 374.714142,388.077484 
	C377.229431,386.213135 379.610352,384.448395 382.139984,382.573425 
	C375.516022,374.281158 369.028625,366.159882 362.146179,357.544067 
	C359.824951,359.975372 357.712677,362.187775 355.908264,364.986908 
M348.523071,345.971283 
	C344.421478,341.288269 340.319885,336.605225 336.206940,331.909302 
	C333.578766,334.172943 331.348816,336.093567 329.177063,337.964081 
	C335.638641,345.449890 341.644012,352.407166 347.741241,359.470856 
	C350.318726,357.384460 352.582703,355.551819 354.826630,353.735413 
	C352.736847,351.135651 350.873383,348.817413 348.523071,345.971283 
z"/>
<path fill="#A793F2" opacity="1.000000" stroke="none" 
	d="
M374.966736,203.015045 
	C382.992371,219.057892 391.018005,235.100739 399.043091,251.553040 
	C399.042603,251.962479 398.898468,252.077377 398.440582,252.048615 
	C382.218445,252.035767 366.454193,252.051666 350.689941,252.067566 
	C343.126343,267.021851 335.451263,281.921570 328.088318,296.974030 
	C326.515442,300.189636 324.644409,301.174561 321.215179,301.109070 
	C306.602448,300.829865 291.984741,300.813263 277.388489,300.196533 
	C281.263672,292.151215 285.202911,284.651550 288.952179,277.058105 
	C293.063171,268.732086 296.998901,260.319550 301.007385,251.711868 
	C301.003754,251.479034 300.996765,251.013351 300.996765,251.013351 
	C300.996765,251.013351 301.467285,251.035034 302.175110,251.020142 
	C318.301239,251.005249 333.719513,251.005249 349.626678,251.005249 
	C349.042389,249.252441 348.780975,247.960663 348.207825,246.826401 
	C341.542114,233.634186 334.806854,220.477051 328.164429,207.273209 
	C327.515930,205.984070 327.362762,204.445709 327.449524,203.014740 
	C343.601837,203.009293 359.284271,203.012177 374.966736,203.015045 
z"/>
<path fill="#A793F2" opacity="1.000000" stroke="none" 
	d="
M300.884033,250.680618 
	C300.996765,251.013351 301.003754,251.479034 300.537659,251.727997 
	C284.328674,252.018112 268.585846,252.059296 252.842987,252.100464 
	C252.842987,252.100464 252.500946,252.078232 251.848495,252.045593 
	C235.328629,251.921448 219.461197,251.829956 203.593781,251.738464 
	C209.483337,239.681183 215.362000,227.618576 221.267853,215.569290 
	C223.602249,210.806610 225.997162,206.073593 228.916260,201.421967 
	C245.109695,201.651443 260.751404,201.786026 276.393097,201.920624 
	C284.519165,218.063049 292.645233,234.205475 300.884033,250.680618 
z"/>
<path fill="#040404" opacity="1.000000" stroke="none" 
	d="
M236.994186,365.945251 
	C235.502090,364.420807 234.010773,363.399414 231.956345,361.992401 
	C230.010498,368.207947 228.489365,373.066833 226.944717,378.000824 
	C224.046875,377.648468 221.305893,377.315155 218.619843,376.988556 
	C221.233826,366.437897 223.878693,355.762634 226.629639,344.659241 
	C229.245850,345.127777 231.981934,345.617798 235.214905,346.196777 
	C234.700668,349.546997 234.189529,352.876984 233.664017,356.300690 
	C237.000809,355.731995 236.999664,355.731995 236.992783,347.566223 
	C236.989700,343.926483 236.992264,340.286743 236.992264,336.451416 
	C239.963135,336.451416 242.702316,336.451416 245.825348,336.451416 
	C245.825348,342.790955 245.825348,349.197449 245.825348,355.906311 
	C249.614639,355.906311 253.043076,355.906311 256.808990,355.906311 
	C256.904846,357.598175 256.984894,359.011169 257.064941,360.424164 
	C257.397491,360.504974 257.730042,360.585754 258.062592,360.666534 
	C259.993958,352.570923 261.925293,344.475311 263.923553,336.099243 
	C266.715393,336.596924 269.739594,337.135986 273.095123,337.734161 
	C271.792938,342.607605 270.568756,347.189148 269.286804,351.986908 
	C278.151642,351.986908 286.794312,351.986908 295.721985,351.986908 
	C295.721985,354.388214 295.721985,356.632477 295.721985,359.098938 
	C293.005768,359.098938 290.222046,359.098938 287.947754,359.098938 
	C285.056763,369.615051 282.251801,379.818207 278.960022,391.792175 
	C283.889374,395.212555 290.315735,399.671692 296.812958,404.179962 
	C295.182190,405.711090 292.982056,407.776764 289.924957,410.647064 
	C284.377441,406.648956 278.573517,402.466034 272.859741,398.348083 
	C269.012146,401.092621 264.812836,404.555969 260.179504,407.281586 
	C253.500000,411.211029 253.365494,410.982361 247.460495,404.852356 
	C254.465134,400.028076 261.536133,395.158081 268.349060,390.465851 
	C266.027435,384.369415 264.160583,379.467102 262.214508,374.356781 
	C260.962097,376.719299 259.595856,379.296570 258.132660,382.056763 
	C257.397461,381.784943 256.815002,381.562042 256.227448,381.353455 
	C247.929825,378.407166 245.900085,379.771179 245.900360,388.290100 
	C245.900604,395.772369 245.900421,403.254669 245.900421,410.967590 
	C242.940536,410.967590 240.054260,410.967590 236.947006,410.967590 
	C236.947006,402.474030 236.947006,394.042603 236.947006,385.161774 
	C231.964584,387.368042 227.325623,389.422211 222.810287,391.421661 
	C221.288788,388.313599 219.848801,385.372070 218.391693,382.395538 
	C224.375809,380.848724 230.513733,379.262177 236.994965,377.586853 
	C236.994965,373.723419 236.994965,370.085907 236.994186,365.945251 
M270.977020,374.353485 
	C271.573303,376.333008 272.169617,378.312531 272.765900,380.292084 
	C273.348114,380.307007 273.930328,380.321930 274.512543,380.336884 
	C275.874298,373.460846 277.236053,366.584839 278.660583,359.391968 
	C274.788055,359.391968 272.393585,359.391968 269.422791,359.391968 
	C269.945160,364.315094 270.431824,368.901825 270.977020,374.353485 
M249.524902,363.256653 
	C245.324432,363.693024 244.870422,365.239807 246.431473,373.689972 
	C252.354294,373.088562 255.109467,369.475616 255.927490,363.586487 
	C253.952881,363.468170 252.185135,363.362274 249.524902,363.256653 
z"/>
<path fill="#9179EF" opacity="1.000000" stroke="none" 
	d="
M203.354675,251.973602 
	C219.461197,251.829956 235.328629,251.921448 251.678467,252.024200 
	C244.477646,267.515564 236.836792,283.017120 229.027298,298.433258 
	C228.429626,299.613037 226.648224,300.920593 225.403275,300.934479 
	C210.097244,301.105225 194.788681,301.045746 178.515396,301.045746 
	C186.909561,284.381409 195.012573,268.295074 203.354675,251.973602 
z"/>
<path fill="#A793F2" opacity="1.000000" stroke="none" 
	d="
M399.114380,251.904663 
	C407.380188,267.914337 415.574188,283.981842 424.165833,300.829010 
	C407.465851,300.829010 391.514191,300.829010 375.369263,300.216095 
	C383.083466,283.761261 390.990967,267.919312 398.898468,252.077377 
	C398.898468,252.077377 399.042603,251.962479 399.114380,251.904663 
z"/>
<path fill="#BDAEF5" opacity="1.000000" stroke="none" 
	d="
M374.865509,202.679626 
	C359.284271,203.012177 343.601837,203.009293 327.435974,202.706055 
	C326.963776,202.200150 326.975006,201.994644 326.986267,201.789124 
	C326.983643,201.456848 326.864594,201.067764 326.995056,200.800430 
	C334.561737,185.293365 342.149078,169.796371 350.209106,153.328583 
	C358.736359,170.350204 366.750305,186.347214 374.865509,202.679626 
z"/>
<path fill="#BDAEF5" opacity="1.000000" stroke="none" 
	d="
M252.910309,252.452957 
	C268.585846,252.059296 284.328674,252.018112 300.541260,251.960815 
	C296.998901,260.319550 293.063171,268.732086 288.952179,277.058105 
	C285.202911,284.651550 281.263672,292.151215 277.095184,299.870422 
	C268.847351,284.300903 260.912506,268.553162 252.910309,252.452957 
z"/>
<path fill="#9179EF" opacity="1.000000" stroke="none" 
	d="
M326.698212,201.994125 
	C326.975006,201.994644 326.963776,202.200150 326.966095,202.714355 
	C327.362762,204.445709 327.515930,205.984070 328.164429,207.273209 
	C334.806854,220.477051 341.542114,233.634186 348.207825,246.826401 
	C348.780975,247.960663 349.042389,249.252441 349.626678,251.005249 
	C333.719513,251.005249 318.301239,251.005249 302.409363,250.995544 
	C310.093903,234.723618 318.252045,218.461380 326.698212,201.994125 
z"/>
<path fill="#9179EF" opacity="1.000000" stroke="none" 
	d="
M398.440582,252.048615 
	C390.990967,267.919312 383.083466,283.761261 375.037109,299.953857 
	C366.893341,284.461395 358.888458,268.618286 350.786743,252.421356 
	C366.454193,252.051666 382.218445,252.035767 398.440582,252.048615 
z"/>
<path fill="#9179EF" opacity="1.000000" stroke="none" 
	d="
M276.278473,201.569473 
	C260.751404,201.786026 245.109695,201.651443 229.179779,201.195908 
	C236.574478,185.270767 244.257416,169.666565 252.334518,153.261841 
	C260.564301,169.824280 268.364075,185.521301 276.278473,201.569473 
z"/>
<path fill="#040404" opacity="1.000000" stroke="none" 
	d="
M361.051331,384.690979 
	C363.188934,385.431458 365.036346,385.958801 367.238373,386.587402 
	C366.230591,392.511047 365.206512,398.373596 364.243622,404.246185 
	C363.615875,408.074677 361.322754,409.409393 357.588074,409.339661 
	C350.091614,409.199677 342.589020,409.396393 335.092163,409.267303 
	C328.236481,409.149261 324.346436,405.802155 324.223724,398.967804 
	C323.940216,383.176697 324.133667,367.377045 324.133667,351.389587 
	C327.044220,351.389587 329.810425,351.389587 333.008514,351.389587 
	C333.008514,355.780884 333.008514,360.352814 333.008514,364.924744 
	C333.008545,375.423431 333.114197,385.923767 332.946655,396.419800 
	C332.893707,399.737427 333.590302,401.266602 337.335938,401.073639 
	C343.310242,400.765991 349.311981,400.991394 356.018097,400.991394 
	C356.687286,396.448730 357.251556,391.922333 358.077454,387.444183 
	C358.319153,386.133575 357.227417,383.029785 361.051331,384.690979 
z"/>
<path fill="#040404" opacity="1.000000" stroke="none" 
	d="
M307.055573,373.919922 
	C308.466675,369.999939 309.819794,366.467712 311.328094,362.530365 
	C314.141937,363.408966 316.875214,364.262421 320.326752,365.340149 
	C316.519623,375.233215 312.770874,384.974579 308.922424,394.975098 
	C305.897247,393.649323 303.254974,392.491364 300.231415,391.166290 
	C302.530853,385.437012 304.764221,379.872375 307.055573,373.919922 
z"/>
<path fill="#040404" opacity="1.000000" stroke="none" 
	d="
M355.754333,364.693542 
	C357.712677,362.187775 359.824951,359.975372 362.146179,357.544067 
	C369.028625,366.159882 375.516022,374.281158 382.139984,382.573425 
	C379.610352,384.448395 377.229431,386.213135 374.714142,388.077484 
	C368.377136,380.296661 362.142700,372.641785 355.754333,364.693542 
z"/>
<path fill="#040404" opacity="1.000000" stroke="none" 
	d="
M348.766479,346.235229 
	C350.873383,348.817413 352.736847,351.135651 354.826630,353.735413 
	C352.582703,355.551819 350.318726,357.384460 347.741241,359.470856 
	C341.644012,352.407166 335.638641,345.449890 329.177063,337.964081 
	C331.348816,336.093567 333.578766,334.172943 336.206940,331.909302 
	C340.319885,336.605225 344.421478,341.288269 348.766479,346.235229 
z"/>
<path fill="#F3F3F3" opacity="1.000000" stroke="none" 
	d="
M270.947754,373.921021 
	C270.431824,368.901825 269.945160,364.315094 269.422791,359.391968 
	C272.393585,359.391968 274.788055,359.391968 278.660583,359.391968 
	C277.236053,366.584839 275.874298,373.460846 274.512543,380.336884 
	C273.930328,380.321930 273.348114,380.307007 272.765900,380.292084 
	C272.169617,378.312531 271.573303,376.333008 270.947754,373.921021 
z"/>
<path fill="#F3F3F3" opacity="1.000000" stroke="none" 
	d="
M249.971130,363.256531 
	C252.185135,363.362274 253.952881,363.468170 255.927490,363.586487 
	C255.109467,369.475616 252.354294,373.088562 246.431473,373.689972 
	C244.870422,365.239807 245.324432,363.693024 249.971130,363.256531 
z"/>
</svg>